<?xml version="1.0" standalone="no"?>
<!DOCTYPE svg PUBLIC "-//W3C//DTD SVG 20010904//EN"
 "http://www.w3.org/TR/2001/REC-SVG-20010904/DTD/svg10.dtd">
<svg version="1.0" xmlns="http://www.w3.org/2000/svg"
 width="640.000000pt" height="640.000000pt" viewBox="0 0 640.000000 640.000000"
 preserveAspectRatio="xMidYMid meet">
<metadata>
Created by potrace 1.15, written by Peter Selinger 2001-2017
</metadata>
<g transform="translate(0.000000,640.000000) scale(0.100000,-0.100000)"
fill="#000000" stroke="none">
<path d="M2651 4774 c-553 -94 -985 -495 -1134 -1052 -30 -114 -31 -123 -31
-342 -1 -212 1 -231 26 -330 44 -176 114 -338 199 -463 l40 -58 -437 -645
c-240 -355 -434 -648 -431 -651 3 -2 296 202 650 455 l645 460 39 -22 c78 -45
217 -98 331 -128 l117 -31 780 0 780 0 117 31 c519 135 891 507 1031 1030 31
115 31 121 31 347 0 226 0 232 -31 347 -140 523 -513 895 -1031 1030 l-117 30
-754 2 c-517 1 -774 -2 -820 -10z m539 -871 c93 -263 88 -251 120 -258 57 -13
29 -25 -55 -25 -82 0 -111 11 -60 24 l24 6 -22 63 -22 62 -69 0 -68 0 -24 -62
-23 -63 24 -6 c48 -12 24 -24 -45 -24 -71 0 -94 13 -42 24 25 6 33 22 106 206
44 113 84 200 91 200 7 0 35 -63 65 -147z m489 141 c30 -6 31 -9 31 -56 0 -42
-3 -49 -17 -46 -11 2 -20 15 -23 32 -4 22 -12 32 -35 38 -72 20 -156 -16 -190
-83 -8 -15 -15 -54 -15 -86 1 -106 58 -186 143 -198 62 -9 95 6 99 47 2 22 9
34 21 36 14 3 17 -5 17 -52 l0 -55 -45 -7 c-85 -12 -161 -1 -208 32 -62 44
-92 104 -92 185 0 56 5 73 30 114 53 86 161 123 284 99z m351 -141 c93 -263
88 -251 120 -258 57 -13 29 -25 -55 -25 -82 0 -111 11 -60 24 l24 6 -22 63
-22 62 -69 0 -68 0 -24 -62 -23 -63 24 -6 c48 -12 24 -24 -45 -24 -71 0 -94
13 -42 24 25 6 33 22 106 206 44 113 84 200 91 200 7 0 35 -63 65 -147z
m-1140 128 c0 -5 -13 -12 -29 -16 l-30 -6 -3 -209 c-3 -194 -4 -211 -24 -237
-28 -38 -82 -69 -96 -55 -7 7 -3 15 14 26 45 30 51 58 56 272 l4 202 -31 7
c-58 13 -31 25 54 25 47 0 85 -4 85 -9z m-525 -848 c100 -34 165 -134 165
-253 0 -161 -109 -270 -270 -270 -161 0 -270 109 -270 270 0 117 65 219 161
253 59 21 154 21 214 0z m760 -11 c47 -24 95 -73 121 -122 26 -49 26 -191 0
-240 -26 -49 -74 -98 -121 -123 -32 -17 -57 -22 -125 -22 -96 0 -141 18 -196
77 -56 59 -69 94 -69 188 0 64 5 94 19 120 35 67 95 118 166 141 44 15 162 4
205 -19z m720 -10 c47 -24 95 -73 121 -122 26 -49 26 -191 0 -240 -26 -49 -74
-98 -121 -123 -32 -17 -57 -22 -125 -22 -96 0 -141 18 -196 77 -56 59 -69 94
-69 188 0 64 5 94 19 120 35 67 95 118 166 141 44 15 162 4 205 -19z m760 0
c47 -24 95 -73 121 -122 26 -49 26 -191 0 -240 -26 -49 -74 -98 -121 -123 -32
-17 -57 -22 -125 -22 -96 0 -141 18 -196 77 -56 59 -69 94 -69 188 0 64 5 94
19 120 35 67 95 118 166 141 44 15 162 4 205 -19z"/>
</g>
</svg>
